<mxfile host="65bd71144e">
    <diagram id="XUw3BSkULF3XVZy4FjoG" name="第 1 页">
        <mxGraphModel dx="2503" dy="1169" grid="1" gridSize="10" guides="1" tooltips="1" connect="1" arrows="1" fold="1" page="1" pageScale="1" pageWidth="827" pageHeight="1169" math="0" shadow="0">
            <root>
                <mxCell id="0"/>
                <mxCell id="1" parent="0"/>
                <mxCell id="2" value="Productor" style="rounded=1;whiteSpace=wrap;html=1;fillColor=#d5e8d4;strokeColor=#82b366;shadow=1;fontSize=18;" parent="1" vertex="1">
                    <mxGeometry x="-150" y="280" width="180" height="90" as="geometry"/>
                </mxCell>
                <mxCell id="3" value="&lt;font style=&quot;font-size: 18px;&quot;&gt;broker&lt;/font&gt;" style="rounded=1;whiteSpace=wrap;html=1;fillColor=#e1d5e7;strokeColor=#9673a6;shadow=1;" parent="1" vertex="1">
                    <mxGeometry x="350" y="280" width="160" height="90" as="geometry"/>
                </mxCell>
                <mxCell id="4" value="Consumer" style="rounded=1;whiteSpace=wrap;html=1;fillColor=#dae8fc;strokeColor=#6c8ebf;shadow=1;fontSize=18;" parent="1" vertex="1">
                    <mxGeometry x="790" y="280" width="190" height="90" as="geometry"/>
                </mxCell>
                <mxCell id="8" style="edgeStyle=none;html=1;entryX=0;entryY=0.25;entryDx=0;entryDy=0;strokeWidth=2;fontSize=18;exitX=1;exitY=0.25;exitDx=0;exitDy=0;" parent="1" source="5" target="6" edge="1">
                    <mxGeometry relative="1" as="geometry"/>
                </mxCell>
                <mxCell id="5" value="Productor" style="rounded=1;whiteSpace=wrap;html=1;fillColor=#d5e8d4;strokeColor=#82b366;shadow=1;fontSize=18;" parent="1" vertex="1">
                    <mxGeometry x="-130" y="640" width="210" height="120" as="geometry"/>
                </mxCell>
                <mxCell id="6" value="&lt;font style=&quot;font-size: 18px;&quot;&gt;Broker&lt;/font&gt;" style="rounded=1;whiteSpace=wrap;html=1;fillColor=#e1d5e7;strokeColor=#9673a6;shadow=1;" parent="1" vertex="1">
                    <mxGeometry x="440" y="640" width="210" height="120" as="geometry"/>
                </mxCell>
                <mxCell id="9" value="message" style="text;html=1;align=center;verticalAlign=middle;resizable=0;points=[];autosize=1;strokeColor=none;fillColor=none;fontSize=18;shadow=1;sketch=0;" parent="1" vertex="1">
                    <mxGeometry x="190" y="630" width="100" height="40" as="geometry"/>
                </mxCell>
                <mxCell id="10" style="edgeStyle=none;html=1;entryX=1;entryY=0.75;entryDx=0;entryDy=0;strokeWidth=2;fontSize=18;exitX=0;exitY=0.75;exitDx=0;exitDy=0;" parent="1" source="6" target="5" edge="1">
                    <mxGeometry relative="1" as="geometry">
                        <mxPoint x="90" y="680" as="sourcePoint"/>
                        <mxPoint x="450" y="680" as="targetPoint"/>
                    </mxGeometry>
                </mxCell>
                <mxCell id="11" value="ok" style="text;html=1;align=center;verticalAlign=middle;resizable=0;points=[];autosize=1;strokeColor=none;fillColor=none;fontSize=18;shadow=1;sketch=0;" parent="1" vertex="1">
                    <mxGeometry x="230" y="690" width="40" height="40" as="geometry"/>
                </mxCell>
                <mxCell id="31" style="edgeStyle=none;html=1;entryX=0.5;entryY=0;entryDx=0;entryDy=0;strokeWidth=2;fontSize=18;" parent="1" source="29" target="27" edge="1">
                    <mxGeometry relative="1" as="geometry"/>
                </mxCell>
                <mxCell id="29" value="Producers" style="rounded=1;whiteSpace=wrap;html=1;shadow=1;glass=0;sketch=0;strokeColor=#b85450;strokeWidth=2;fontSize=18;fillColor=#f8cecc;" parent="1" vertex="1">
                    <mxGeometry x="835" y="910" width="120" height="60" as="geometry"/>
                </mxCell>
                <mxCell id="30" value="" style="group" parent="1" vertex="1" connectable="0">
                    <mxGeometry x="20" y="1140" width="910" height="160" as="geometry"/>
                </mxCell>
                <mxCell id="13" value="0" style="rounded=0;whiteSpace=wrap;html=1;shadow=1;fontSize=18;fillColor=#d5e8d4;strokeColor=#33001A;glass=0;gradientColor=none;strokeWidth=2;" parent="30" vertex="1">
                    <mxGeometry width="70" height="160" as="geometry"/>
                </mxCell>
                <mxCell id="15" value="1" style="rounded=0;whiteSpace=wrap;html=1;shadow=1;fontSize=18;fillColor=#d5e8d4;strokeColor=#33001A;glass=0;gradientColor=none;strokeWidth=2;" parent="30" vertex="1">
                    <mxGeometry x="70" width="70" height="160" as="geometry"/>
                </mxCell>
                <mxCell id="16" value="2" style="rounded=0;whiteSpace=wrap;html=1;shadow=1;fontSize=18;fillColor=#d5e8d4;strokeColor=#33001A;glass=0;gradientColor=none;strokeWidth=2;" parent="30" vertex="1">
                    <mxGeometry x="140" width="70" height="160" as="geometry"/>
                </mxCell>
                <mxCell id="17" value="3" style="rounded=0;whiteSpace=wrap;html=1;shadow=1;fontSize=18;fillColor=#d5e8d4;strokeColor=#33001A;glass=0;gradientColor=none;strokeWidth=2;" parent="30" vertex="1">
                    <mxGeometry x="210" width="70" height="160" as="geometry"/>
                </mxCell>
                <mxCell id="18" value="4" style="rounded=0;whiteSpace=wrap;html=1;shadow=1;fontSize=18;fillColor=#d5e8d4;strokeColor=#33001A;glass=0;gradientColor=none;strokeWidth=2;" parent="30" vertex="1">
                    <mxGeometry x="280" width="70" height="160" as="geometry"/>
                </mxCell>
                <mxCell id="20" value="5" style="rounded=0;whiteSpace=wrap;html=1;shadow=1;fontSize=18;fillColor=#d5e8d4;strokeColor=#33001A;glass=0;gradientColor=none;strokeWidth=2;" parent="30" vertex="1">
                    <mxGeometry x="350" width="70" height="160" as="geometry"/>
                </mxCell>
                <mxCell id="21" value="6" style="rounded=0;whiteSpace=wrap;html=1;shadow=1;fontSize=18;fillColor=#d5e8d4;strokeColor=#33001A;glass=0;gradientColor=none;strokeWidth=2;" parent="30" vertex="1">
                    <mxGeometry x="420" width="70" height="160" as="geometry"/>
                </mxCell>
                <mxCell id="22" value="7" style="rounded=0;whiteSpace=wrap;html=1;shadow=1;fontSize=18;fillColor=#d5e8d4;strokeColor=#33001A;glass=0;gradientColor=none;strokeWidth=2;" parent="30" vertex="1">
                    <mxGeometry x="490" width="70" height="160" as="geometry"/>
                </mxCell>
                <mxCell id="23" value="8" style="rounded=0;whiteSpace=wrap;html=1;shadow=1;fontSize=18;fillColor=#d5e8d4;strokeColor=#33001A;glass=0;gradientColor=none;strokeWidth=2;" parent="30" vertex="1">
                    <mxGeometry x="560" width="70" height="160" as="geometry"/>
                </mxCell>
                <mxCell id="24" value="9" style="rounded=0;whiteSpace=wrap;html=1;shadow=1;fontSize=18;fillColor=#d5e8d4;strokeColor=#33001A;glass=0;gradientColor=none;strokeWidth=2;" parent="30" vertex="1">
                    <mxGeometry x="630" width="70" height="160" as="geometry"/>
                </mxCell>
                <mxCell id="25" value="10" style="rounded=0;whiteSpace=wrap;html=1;shadow=1;fontSize=18;fillColor=#d5e8d4;strokeColor=#33001A;glass=0;gradientColor=none;strokeWidth=2;" parent="30" vertex="1">
                    <mxGeometry x="700" width="70" height="160" as="geometry"/>
                </mxCell>
                <mxCell id="26" value="11" style="rounded=0;whiteSpace=wrap;html=1;shadow=1;fontSize=18;fillColor=#d5e8d4;strokeColor=#33001A;glass=0;gradientColor=none;strokeWidth=2;" parent="30" vertex="1">
                    <mxGeometry x="770" width="70" height="160" as="geometry"/>
                </mxCell>
                <mxCell id="27" value="12" style="rounded=0;whiteSpace=wrap;html=1;shadow=1;fontSize=18;fillColor=#d5e8d4;strokeColor=#33001A;glass=0;gradientColor=none;strokeWidth=2;dashed=1;dashPattern=8 8;" parent="30" vertex="1">
                    <mxGeometry x="840" width="70" height="160" as="geometry"/>
                </mxCell>
                <mxCell id="32" value="writes" style="text;html=1;strokeColor=none;fillColor=none;align=center;verticalAlign=middle;whiteSpace=wrap;rounded=0;shadow=1;glass=0;sketch=0;strokeWidth=2;fontSize=18;" parent="1" vertex="1">
                    <mxGeometry x="910" y="1050" width="60" height="30" as="geometry"/>
                </mxCell>
                <mxCell id="34" style="edgeStyle=none;html=1;entryX=0.5;entryY=1;entryDx=0;entryDy=0;strokeWidth=2;fontSize=18;" parent="1" source="33" target="24" edge="1">
                    <mxGeometry relative="1" as="geometry"/>
                </mxCell>
                <mxCell id="33" value="ConsumerA" style="rounded=1;whiteSpace=wrap;html=1;shadow=1;glass=0;sketch=0;strokeColor=#d6b656;strokeWidth=2;fontSize=18;fillColor=#fff2cc;" parent="1" vertex="1">
                    <mxGeometry x="520" y="1520" width="120" height="60" as="geometry"/>
                </mxCell>
                <mxCell id="35" value="ConsumerB" style="rounded=1;whiteSpace=wrap;html=1;shadow=1;glass=0;sketch=0;strokeColor=#d6b656;strokeWidth=2;fontSize=18;fillColor=#fff2cc;" parent="1" vertex="1">
                    <mxGeometry x="870" y="1520" width="120" height="60" as="geometry"/>
                </mxCell>
                <mxCell id="36" value="" style="endArrow=classic;html=1;strokeWidth=2;fontSize=18;entryX=0.5;entryY=1;entryDx=0;entryDy=0;exitX=0.5;exitY=0;exitDx=0;exitDy=0;" parent="1" source="35" target="26" edge="1">
                    <mxGeometry width="50" height="50" relative="1" as="geometry">
                        <mxPoint x="870" y="1520" as="sourcePoint"/>
                        <mxPoint x="920" y="1470" as="targetPoint"/>
                    </mxGeometry>
                </mxCell>
                <mxCell id="37" value="offset=9" style="text;html=1;strokeColor=none;fillColor=none;align=center;verticalAlign=middle;whiteSpace=wrap;rounded=0;shadow=1;glass=0;sketch=0;strokeWidth=2;fontSize=18;" parent="1" vertex="1">
                    <mxGeometry x="550" y="1600" width="60" height="30" as="geometry"/>
                </mxCell>
                <mxCell id="38" value="offset=11" style="text;html=1;strokeColor=none;fillColor=none;align=center;verticalAlign=middle;whiteSpace=wrap;rounded=0;shadow=1;glass=0;sketch=0;strokeWidth=2;fontSize=18;" parent="1" vertex="1">
                    <mxGeometry x="900" y="1590" width="60" height="30" as="geometry"/>
                </mxCell>
                <mxCell id="39" value="read" style="text;html=1;strokeColor=none;fillColor=none;align=center;verticalAlign=middle;whiteSpace=wrap;rounded=0;shadow=1;glass=0;sketch=0;strokeWidth=2;fontSize=18;" parent="1" vertex="1">
                    <mxGeometry x="640" y="1410" width="60" height="30" as="geometry"/>
                </mxCell>
                <mxCell id="40" value="read" style="text;html=1;strokeColor=none;fillColor=none;align=center;verticalAlign=middle;whiteSpace=wrap;rounded=0;shadow=1;glass=0;sketch=0;strokeWidth=2;fontSize=18;" parent="1" vertex="1">
                    <mxGeometry x="880" y="1400" width="60" height="30" as="geometry"/>
                </mxCell>
                <mxCell id="42" value="0" style="rounded=0;whiteSpace=wrap;html=1;shadow=1;fontSize=18;fillColor=#d5e8d4;strokeColor=#33001A;glass=0;gradientColor=none;strokeWidth=2;" vertex="1" parent="1">
                    <mxGeometry x="40" y="1830" width="70" height="160" as="geometry"/>
                </mxCell>
                <mxCell id="43" value="1" style="rounded=0;whiteSpace=wrap;html=1;shadow=1;fontSize=18;fillColor=#d5e8d4;strokeColor=#33001A;glass=0;gradientColor=none;strokeWidth=2;" vertex="1" parent="1">
                    <mxGeometry x="110" y="1830" width="70" height="160" as="geometry"/>
                </mxCell>
                <mxCell id="44" value="2" style="rounded=0;whiteSpace=wrap;html=1;shadow=1;fontSize=18;fillColor=#d5e8d4;strokeColor=#33001A;glass=0;gradientColor=none;strokeWidth=2;" vertex="1" parent="1">
                    <mxGeometry x="180" y="1830" width="70" height="160" as="geometry"/>
                </mxCell>
                <mxCell id="45" value="3" style="rounded=0;whiteSpace=wrap;html=1;shadow=1;fontSize=18;fillColor=#d5e8d4;strokeColor=#33001A;glass=0;gradientColor=none;strokeWidth=2;" vertex="1" parent="1">
                    <mxGeometry x="250" y="1830" width="70" height="160" as="geometry"/>
                </mxCell>
                <mxCell id="46" value="4" style="rounded=0;whiteSpace=wrap;html=1;shadow=1;fontSize=18;fillColor=#d5e8d4;strokeColor=#33001A;glass=0;gradientColor=none;strokeWidth=2;" vertex="1" parent="1">
                    <mxGeometry x="320" y="1830" width="70" height="160" as="geometry"/>
                </mxCell>
                <mxCell id="47" value="5" style="rounded=0;whiteSpace=wrap;html=1;shadow=1;fontSize=18;fillColor=#d5e8d4;strokeColor=#33001A;glass=0;gradientColor=none;strokeWidth=2;" vertex="1" parent="1">
                    <mxGeometry x="390" y="1830" width="70" height="160" as="geometry"/>
                </mxCell>
                <mxCell id="48" value="6" style="rounded=0;whiteSpace=wrap;html=1;shadow=1;fontSize=18;fillColor=#f8cecc;strokeColor=#b85450;glass=0;strokeWidth=2;" vertex="1" parent="1">
                    <mxGeometry x="460" y="1830" width="70" height="160" as="geometry"/>
                </mxCell>
                <mxCell id="49" value="7" style="rounded=0;whiteSpace=wrap;html=1;shadow=1;fontSize=18;fillColor=#f8cecc;strokeColor=#b85450;glass=0;strokeWidth=2;" vertex="1" parent="1">
                    <mxGeometry x="530" y="1830" width="70" height="160" as="geometry"/>
                </mxCell>
                <mxCell id="50" value="8" style="rounded=0;whiteSpace=wrap;html=1;shadow=1;fontSize=18;fillColor=#f8cecc;strokeColor=#b85450;glass=0;strokeWidth=2;" vertex="1" parent="1">
                    <mxGeometry x="600" y="1830" width="70" height="160" as="geometry"/>
                </mxCell>
                <mxCell id="51" value="9" style="rounded=0;whiteSpace=wrap;html=1;shadow=1;fontSize=18;fillColor=#f8cecc;strokeColor=#b85450;glass=0;strokeWidth=2;" vertex="1" parent="1">
                    <mxGeometry x="670" y="1830" width="70" height="160" as="geometry"/>
                </mxCell>
                <mxCell id="52" value="10" style="rounded=0;whiteSpace=wrap;html=1;shadow=1;fontSize=18;fillColor=#f8cecc;strokeColor=#b85450;glass=0;strokeWidth=2;" vertex="1" parent="1">
                    <mxGeometry x="740" y="1830" width="70" height="160" as="geometry"/>
                </mxCell>
                <mxCell id="53" value="11" style="rounded=0;whiteSpace=wrap;html=1;shadow=1;fontSize=18;fillColor=#f8cecc;strokeColor=#b85450;glass=0;strokeWidth=2;" vertex="1" parent="1">
                    <mxGeometry x="810" y="1830" width="70" height="160" as="geometry"/>
                </mxCell>
                <mxCell id="54" value="12" style="rounded=0;whiteSpace=wrap;html=1;shadow=1;fontSize=18;fillColor=#dae8fc;strokeColor=#6c8ebf;glass=0;strokeWidth=2;dashed=1;dashPattern=8 8;" vertex="1" parent="1">
                    <mxGeometry x="880" y="1830" width="70" height="160" as="geometry"/>
                </mxCell>
                <mxCell id="56" style="edgeStyle=none;html=1;exitX=0.1;exitY=0.5;exitDx=0;exitDy=0;exitPerimeter=0;" edge="1" parent="1" source="55">
                    <mxGeometry relative="1" as="geometry">
                        <mxPoint x="250" y="2050" as="targetPoint"/>
                    </mxGeometry>
                </mxCell>
                <mxCell id="55" value="" style="shape=curlyBracket;whiteSpace=wrap;html=1;rounded=1;flipH=1;labelPosition=right;verticalLabelPosition=middle;align=left;verticalAlign=middle;rotation=90;" vertex="1" parent="1">
                    <mxGeometry x="220" y="1840" width="60" height="360" as="geometry"/>
                </mxCell>
                <mxCell id="60" value="已经提交消息" style="text;html=1;strokeColor=none;fillColor=none;align=center;verticalAlign=middle;whiteSpace=wrap;rounded=0;" vertex="1" parent="1">
                    <mxGeometry x="220" y="2060" width="60" height="30" as="geometry"/>
                </mxCell>
                <mxCell id="61" value="" style="shape=curlyBracket;whiteSpace=wrap;html=1;rounded=1;flipH=1;labelPosition=right;verticalLabelPosition=middle;align=left;verticalAlign=middle;rotation=90;" vertex="1" parent="1">
                    <mxGeometry x="640" y="1840" width="60" height="360" as="geometry"/>
                </mxCell>
                <mxCell id="62" value="未提交消息" style="text;html=1;strokeColor=none;fillColor=none;align=center;verticalAlign=middle;whiteSpace=wrap;rounded=0;" vertex="1" parent="1">
                    <mxGeometry x="650" y="2060" width="60" height="30" as="geometry"/>
                </mxCell>
                <mxCell id="64" value="高水位" style="rounded=1;whiteSpace=wrap;html=1;fillColor=#fff2cc;strokeColor=#d6b656;" vertex="1" parent="1">
                    <mxGeometry x="400" y="2140" width="120" height="60" as="geometry"/>
                </mxCell>
                <mxCell id="65" value="" style="endArrow=classic;html=1;entryX=1.033;entryY=1.008;entryDx=0;entryDy=0;entryPerimeter=0;exitX=0.5;exitY=0;exitDx=0;exitDy=0;" edge="1" parent="1" source="64" target="61">
                    <mxGeometry width="50" height="50" relative="1" as="geometry">
                        <mxPoint x="600" y="1830" as="sourcePoint"/>
                        <mxPoint x="650" y="1780" as="targetPoint"/>
                    </mxGeometry>
                </mxCell>
                <mxCell id="66" value="日志末端位移" style="rounded=1;whiteSpace=wrap;html=1;fillColor=#fff2cc;strokeColor=#d6b656;" vertex="1" parent="1">
                    <mxGeometry x="900" y="2140" width="120" height="60" as="geometry"/>
                </mxCell>
                <mxCell id="67" value="" style="endArrow=classic;html=1;entryX=0.5;entryY=1;entryDx=0;entryDy=0;exitX=0.5;exitY=0;exitDx=0;exitDy=0;" edge="1" parent="1" source="66" target="54">
                    <mxGeometry width="50" height="50" relative="1" as="geometry">
                        <mxPoint x="600" y="1830" as="sourcePoint"/>
                        <mxPoint x="650" y="1780" as="targetPoint"/>
                    </mxGeometry>
                </mxCell>
            </root>
        </mxGraphModel>
    </diagram>
</mxfile>